<mxfile host="65bd71144e" scale="4" border="0">
    <diagram id="WFJYjJD1vDrld9Nu0dZH" name="Page-1">
        <mxGraphModel dx="1224" dy="823" grid="1" gridSize="10" guides="1" tooltips="1" connect="1" arrows="1" fold="1" page="1" pageScale="1" pageWidth="1169" pageHeight="827" math="1" shadow="0">
            <root>
                <mxCell id="0"/>
                <mxCell id="1" parent="0"/>
                <mxCell id="10" style="edgeStyle=none;html=1;endArrow=none;endFill=0;sketch=1;curveFitting=1;jiggle=2;strokeWidth=2;" parent="1" source="2" target="3" edge="1">
                    <mxGeometry relative="1" as="geometry"/>
                </mxCell>
                <mxCell id="14" style="edgeStyle=none;html=1;endArrow=none;endFill=0;sketch=1;curveFitting=1;jiggle=2;strokeWidth=2;" parent="1" source="2" target="5" edge="1">
                    <mxGeometry relative="1" as="geometry"/>
                </mxCell>
                <mxCell id="15" style="edgeStyle=none;html=1;endArrow=none;endFill=0;strokeWidth=2;" parent="1" source="2" target="7" edge="1">
                    <mxGeometry relative="1" as="geometry"/>
                </mxCell>
                <mxCell id="16" style="edgeStyle=none;html=1;endArrow=none;endFill=0;sketch=1;curveFitting=1;jiggle=2;strokeWidth=2;" parent="1" source="2" target="9" edge="1">
                    <mxGeometry relative="1" as="geometry"/>
                </mxCell>
                <mxCell id="2" value="" style="ellipse;whiteSpace=wrap;html=1;aspect=fixed;strokeWidth=2;sketch=1;curveFitting=1;jiggle=2;fillStyle=hachure;fillColor=#FF8000;" parent="1" vertex="1">
                    <mxGeometry x="640" y="120" width="60" height="60" as="geometry"/>
                </mxCell>
                <mxCell id="3" value="" style="ellipse;whiteSpace=wrap;html=1;aspect=fixed;strokeWidth=2;sketch=1;curveFitting=1;jiggle=2;fillColor=none;" parent="1" vertex="1">
                    <mxGeometry x="940" y="120" width="60" height="60" as="geometry"/>
                </mxCell>
                <mxCell id="11" style="edgeStyle=none;html=1;endArrow=none;endFill=0;sketch=1;curveFitting=1;jiggle=2;strokeWidth=2;" parent="1" source="4" target="5" edge="1">
                    <mxGeometry relative="1" as="geometry"/>
                </mxCell>
                <mxCell id="17" style="edgeStyle=none;html=1;endArrow=none;endFill=0;sketch=1;curveFitting=1;jiggle=2;strokeWidth=2;" parent="1" source="4" target="3" edge="1">
                    <mxGeometry relative="1" as="geometry"/>
                </mxCell>
                <mxCell id="18" style="edgeStyle=none;html=1;endArrow=none;endFill=0;strokeWidth=2;" parent="1" source="4" target="7" edge="1">
                    <mxGeometry relative="1" as="geometry"/>
                </mxCell>
                <mxCell id="19" style="edgeStyle=none;html=1;endArrow=none;endFill=0;strokeWidth=2;" parent="1" source="4" target="9" edge="1">
                    <mxGeometry relative="1" as="geometry"/>
                </mxCell>
                <mxCell id="4" value="" style="ellipse;whiteSpace=wrap;html=1;aspect=fixed;strokeWidth=2;sketch=1;curveFitting=1;jiggle=2;fillStyle=hachure;fillColor=#FF8000;" parent="1" vertex="1">
                    <mxGeometry x="640" y="240" width="60" height="60" as="geometry"/>
                </mxCell>
                <mxCell id="5" value="" style="ellipse;whiteSpace=wrap;html=1;aspect=fixed;strokeWidth=2;sketch=1;curveFitting=1;jiggle=2;fillColor=none;" parent="1" vertex="1">
                    <mxGeometry x="940" y="240" width="60" height="60" as="geometry"/>
                </mxCell>
                <mxCell id="12" style="edgeStyle=none;html=1;endArrow=none;endFill=0;sketch=1;curveFitting=1;jiggle=2;strokeWidth=2;" parent="1" source="6" target="7" edge="1">
                    <mxGeometry relative="1" as="geometry"/>
                </mxCell>
                <mxCell id="20" style="edgeStyle=none;html=1;endArrow=none;endFill=0;sketch=1;curveFitting=1;jiggle=2;strokeWidth=2;" parent="1" source="6" target="3" edge="1">
                    <mxGeometry relative="1" as="geometry"/>
                </mxCell>
                <mxCell id="21" style="edgeStyle=none;html=1;endArrow=none;endFill=0;sketch=1;curveFitting=1;jiggle=2;strokeWidth=2;" parent="1" source="6" target="5" edge="1">
                    <mxGeometry relative="1" as="geometry"/>
                </mxCell>
                <mxCell id="22" style="edgeStyle=none;html=1;endArrow=none;endFill=0;sketch=1;curveFitting=1;jiggle=2;strokeWidth=2;" parent="1" source="6" target="9" edge="1">
                    <mxGeometry relative="1" as="geometry"/>
                </mxCell>
                <mxCell id="6" value="" style="ellipse;whiteSpace=wrap;html=1;aspect=fixed;strokeWidth=2;sketch=1;curveFitting=1;jiggle=2;fillStyle=hachure;fillColor=#FF8000;" parent="1" vertex="1">
                    <mxGeometry x="640" y="360" width="60" height="60" as="geometry"/>
                </mxCell>
                <mxCell id="7" value="" style="ellipse;whiteSpace=wrap;html=1;aspect=fixed;strokeWidth=2;sketch=1;curveFitting=1;jiggle=2;fillColor=none;" parent="1" vertex="1">
                    <mxGeometry x="940" y="360" width="60" height="60" as="geometry"/>
                </mxCell>
                <mxCell id="13" style="edgeStyle=none;html=1;endArrow=none;endFill=0;strokeWidth=2;" parent="1" source="8" target="9" edge="1">
                    <mxGeometry relative="1" as="geometry"/>
                </mxCell>
                <mxCell id="23" style="edgeStyle=none;html=1;endArrow=none;endFill=0;sketch=1;curveFitting=1;jiggle=2;strokeWidth=2;" parent="1" source="8" target="3" edge="1">
                    <mxGeometry relative="1" as="geometry"/>
                </mxCell>
                <mxCell id="24" style="edgeStyle=none;html=1;endArrow=none;endFill=0;sketch=1;curveFitting=1;jiggle=2;strokeWidth=2;" parent="1" source="8" target="5" edge="1">
                    <mxGeometry relative="1" as="geometry"/>
                </mxCell>
                <mxCell id="25" style="edgeStyle=none;html=1;endArrow=none;endFill=0;sketch=1;curveFitting=1;jiggle=2;strokeWidth=2;" parent="1" source="8" target="7" edge="1">
                    <mxGeometry relative="1" as="geometry"/>
                </mxCell>
                <mxCell id="8" value="" style="ellipse;whiteSpace=wrap;html=1;aspect=fixed;strokeWidth=2;sketch=1;curveFitting=1;jiggle=2;fillStyle=hachure;fillColor=#FF8000;" parent="1" vertex="1">
                    <mxGeometry x="640" y="600" width="60" height="60" as="geometry"/>
                </mxCell>
                <mxCell id="9" value="" style="ellipse;whiteSpace=wrap;html=1;aspect=fixed;strokeWidth=2;sketch=1;curveFitting=1;jiggle=2;fillColor=none;" parent="1" vertex="1">
                    <mxGeometry x="930" y="600" width="60" height="60" as="geometry"/>
                </mxCell>
                <mxCell id="26" value="" style="endArrow=none;dashed=1;html=1;dashPattern=1 3;strokeWidth=2;sketch=1;curveFitting=1;jiggle=2;" parent="1" edge="1">
                    <mxGeometry width="50" height="50" relative="1" as="geometry">
                        <mxPoint x="669.6700000000001" y="540" as="sourcePoint"/>
                        <mxPoint x="669.6700000000001" y="480" as="targetPoint"/>
                    </mxGeometry>
                </mxCell>
                <mxCell id="27" value="" style="endArrow=none;dashed=1;html=1;dashPattern=1 3;strokeWidth=2;sketch=1;curveFitting=1;jiggle=2;" parent="1" edge="1">
                    <mxGeometry width="50" height="50" relative="1" as="geometry">
                        <mxPoint x="969.6700000000001" y="550" as="sourcePoint"/>
                        <mxPoint x="969.6700000000001" y="490" as="targetPoint"/>
                    </mxGeometry>
                </mxCell>
                <mxCell id="29" style="edgeStyle=none;html=1;endArrow=none;endFill=0;strokeWidth=2;strokeColor=#FF8000;" parent="1" source="33" target="34" edge="1">
                    <mxGeometry relative="1" as="geometry"/>
                </mxCell>
                <mxCell id="30" style="edgeStyle=none;html=1;endArrow=none;endFill=0;sketch=1;curveFitting=1;jiggle=2;strokeWidth=2;" parent="1" source="33" target="40" edge="1">
                    <mxGeometry relative="1" as="geometry"/>
                </mxCell>
                <mxCell id="31" style="edgeStyle=none;html=1;endArrow=none;endFill=0;strokeWidth=2;" parent="1" source="33" target="46" edge="1">
                    <mxGeometry relative="1" as="geometry"/>
                </mxCell>
                <mxCell id="32" style="edgeStyle=none;html=1;endArrow=none;endFill=0;sketch=1;curveFitting=1;jiggle=2;strokeWidth=2;" parent="1" source="33" target="52" edge="1">
                    <mxGeometry relative="1" as="geometry"/>
                </mxCell>
                <mxCell id="33" value="" style="ellipse;whiteSpace=wrap;html=1;aspect=fixed;strokeWidth=2;sketch=1;curveFitting=1;jiggle=2;fillStyle=hachure;fillColor=#FF8000;" parent="1" vertex="1">
                    <mxGeometry x="120" y="120" width="60" height="60" as="geometry"/>
                </mxCell>
                <mxCell id="34" value="" style="ellipse;whiteSpace=wrap;html=1;aspect=fixed;strokeWidth=2;sketch=1;curveFitting=1;jiggle=2;fillStyle=hachure;fillColor=#FF8000;" parent="1" vertex="1">
                    <mxGeometry x="420" y="120" width="60" height="60" as="geometry"/>
                </mxCell>
                <mxCell id="35" style="edgeStyle=none;html=1;endArrow=none;endFill=0;sketch=1;curveFitting=1;jiggle=2;strokeWidth=2;strokeColor=#FF8000;" parent="1" source="39" target="40" edge="1">
                    <mxGeometry relative="1" as="geometry"/>
                </mxCell>
                <mxCell id="36" style="edgeStyle=none;html=1;endArrow=none;endFill=0;strokeWidth=2;" parent="1" source="39" target="34" edge="1">
                    <mxGeometry relative="1" as="geometry"/>
                </mxCell>
                <mxCell id="37" style="edgeStyle=none;html=1;endArrow=none;endFill=0;strokeWidth=2;" parent="1" source="39" target="46" edge="1">
                    <mxGeometry relative="1" as="geometry"/>
                </mxCell>
                <mxCell id="38" style="edgeStyle=none;html=1;endArrow=none;endFill=0;strokeWidth=2;" parent="1" source="39" target="52" edge="1">
                    <mxGeometry relative="1" as="geometry"/>
                </mxCell>
                <mxCell id="39" value="" style="ellipse;whiteSpace=wrap;html=1;aspect=fixed;strokeWidth=2;sketch=1;curveFitting=1;jiggle=2;fillStyle=hachure;fillColor=#FF8000;" parent="1" vertex="1">
                    <mxGeometry x="120" y="240" width="60" height="60" as="geometry"/>
                </mxCell>
                <mxCell id="40" value="" style="ellipse;whiteSpace=wrap;html=1;aspect=fixed;strokeWidth=2;sketch=1;curveFitting=1;jiggle=2;fillStyle=hachure;fillColor=#FF8000;" parent="1" vertex="1">
                    <mxGeometry x="420" y="240" width="60" height="60" as="geometry"/>
                </mxCell>
                <mxCell id="41" style="edgeStyle=none;html=1;endArrow=none;endFill=0;sketch=1;curveFitting=1;jiggle=2;strokeWidth=2;strokeColor=#FF8000;" parent="1" source="45" target="46" edge="1">
                    <mxGeometry relative="1" as="geometry"/>
                </mxCell>
                <mxCell id="42" style="edgeStyle=none;html=1;endArrow=none;endFill=0;strokeWidth=2;" parent="1" source="45" target="34" edge="1">
                    <mxGeometry relative="1" as="geometry"/>
                </mxCell>
                <mxCell id="43" style="edgeStyle=none;html=1;endArrow=none;endFill=0;strokeWidth=2;" parent="1" source="45" target="40" edge="1">
                    <mxGeometry relative="1" as="geometry"/>
                </mxCell>
                <mxCell id="44" style="edgeStyle=none;html=1;endArrow=none;endFill=0;sketch=1;curveFitting=1;jiggle=2;strokeWidth=2;" parent="1" source="45" target="52" edge="1">
                    <mxGeometry relative="1" as="geometry"/>
                </mxCell>
                <mxCell id="45" value="" style="ellipse;whiteSpace=wrap;html=1;aspect=fixed;strokeWidth=2;sketch=1;curveFitting=1;jiggle=2;fillStyle=hachure;fillColor=#FF8000;" parent="1" vertex="1">
                    <mxGeometry x="120" y="360" width="60" height="60" as="geometry"/>
                </mxCell>
                <mxCell id="46" value="" style="ellipse;whiteSpace=wrap;html=1;aspect=fixed;strokeWidth=2;sketch=1;curveFitting=1;jiggle=2;fillStyle=hachure;fillColor=#FF8000;" parent="1" vertex="1">
                    <mxGeometry x="420" y="360" width="60" height="60" as="geometry"/>
                </mxCell>
                <mxCell id="47" style="edgeStyle=none;html=1;endArrow=none;endFill=0;strokeWidth=2;strokeColor=#FF8000;" parent="1" source="51" target="52" edge="1">
                    <mxGeometry relative="1" as="geometry"/>
                </mxCell>
                <mxCell id="48" style="edgeStyle=none;html=1;endArrow=none;endFill=0;sketch=1;curveFitting=1;jiggle=2;strokeWidth=2;" parent="1" source="51" target="34" edge="1">
                    <mxGeometry relative="1" as="geometry"/>
                </mxCell>
                <mxCell id="49" style="edgeStyle=none;html=1;endArrow=none;endFill=0;sketch=1;curveFitting=1;jiggle=2;strokeWidth=2;" parent="1" source="51" target="40" edge="1">
                    <mxGeometry relative="1" as="geometry"/>
                </mxCell>
                <mxCell id="50" style="edgeStyle=none;html=1;endArrow=none;endFill=0;sketch=1;curveFitting=1;jiggle=2;strokeWidth=2;" parent="1" source="51" target="46" edge="1">
                    <mxGeometry relative="1" as="geometry"/>
                </mxCell>
                <mxCell id="51" value="" style="ellipse;whiteSpace=wrap;html=1;aspect=fixed;strokeWidth=2;sketch=1;curveFitting=1;jiggle=2;fillStyle=hachure;fillColor=#FF8000;" parent="1" vertex="1">
                    <mxGeometry x="120" y="600" width="60" height="60" as="geometry"/>
                </mxCell>
                <mxCell id="52" value="" style="ellipse;whiteSpace=wrap;html=1;aspect=fixed;strokeWidth=2;sketch=1;curveFitting=1;jiggle=2;fillStyle=hachure;fillColor=#FF8000;" parent="1" vertex="1">
                    <mxGeometry x="410" y="600" width="60" height="60" as="geometry"/>
                </mxCell>
                <mxCell id="53" value="" style="endArrow=none;dashed=1;html=1;dashPattern=1 3;strokeWidth=2;sketch=1;curveFitting=1;jiggle=2;" parent="1" edge="1">
                    <mxGeometry width="50" height="50" relative="1" as="geometry">
                        <mxPoint x="149.66999999999996" y="540" as="sourcePoint"/>
                        <mxPoint x="149.66999999999996" y="480" as="targetPoint"/>
                    </mxGeometry>
                </mxCell>
                <mxCell id="54" value="" style="endArrow=none;dashed=1;html=1;dashPattern=1 3;strokeWidth=2;sketch=1;curveFitting=1;jiggle=2;" parent="1" edge="1">
                    <mxGeometry width="50" height="50" relative="1" as="geometry">
                        <mxPoint x="449.66999999999996" y="550" as="sourcePoint"/>
                        <mxPoint x="449.66999999999996" y="490" as="targetPoint"/>
                    </mxGeometry>
                </mxCell>
            </root>
        </mxGraphModel>
    </diagram>
</mxfile>
